{"title":"Jurassic World 2015 1080p BluRay.avi","uid":12645503,"size":1929978686,"categoryP":"video","categoryS":"hd___movies","magnet":"?xt=urn:btih:9379b73ffe6112052c308944241b9786956d0a42&amp;dn=Jurassic+World+2015+1080p+BluRay.avi&amp;tr=udp%3A%2F%2Ftracker.leechers-paradise.org%3A6969&amp;tr=udp%3A%2F%2Fzer0day.ch%3A1337&amp;tr=udp%3A%2F%2Fopen.demonii.com%3A1337&amp;tr=udp%3A%2F%2Ftracker.coppersurfer.tk%3A6969&amp;tr=udp%3A%2F%2Fexodus.desync.com%3A6969","seeders":0,"leechers":0,"uploader":"freedomdwarf1","files":1,"time":1446051863,"description":"Original BluRay version taken from SPARKS' 8.9GB version.\r\nYou can find it here: https://thepiratebay.gd/torrent/12492044/Jurassic_World_2015_1080p_BluRay_x264-SPARKS\r\nIt's a huge download at 8.9GB.\r\n\r\n\r\nPLOT: \r\nA new theme park is built on the original site of Jurassic Park. Everything is going well until the park's newest attraction--a genetically modified giant stealth killing machine--escapes containment and goes on a killing spree.\r\n\r\nACTORS: \r\nChris Pratt, Bryce Dallas Howard, Irrfan Khan, Vincent D'Onofrio, Ty Simpkins, Nick Robinson, \r\n\r\nRELEASED: \r\n 12 June 2015 \r\n\r\nIMDB: http://www.imdb.com/title/tt0369610/\r\n\r\n\r\n\r\n Size: 9386962293 bytes (8.74 GiB), duration: 02:04:21, avg.bitrate: 10065 kb/s\r\nAudio: dts, 48000 Hz, 5:1 (eng)\r\nVideo: h264, yuv420p, 1920x960, 23.98 fps(r) (eng)\r\n\r\n\r\n\r\n\r\n SCREENS:   \nhttp://icezap.com/img-560540fe1b98c.html\r\n  \nhttp://icezap.com/img-560540fe2a3b3.html\r\n  \nhttp://icezap.com/img-560540fe39309.html\r\n\r\n\r\nDOWNLOAD AND ENJOY. \r\n\r\n KEEP IT FOR LONG SEEDING TO HELP OTHERS \r\n\r\n \r\n Thanks to : SPARKS\r\n\r\n----------------------------------------------------------------------------\r\n\r\nI ripped the audio and enhanced it slightly.\r\nPunched it through Virtualdub to improve the brightness, contrast and colour and to sharpen it a little.\r\nRe-rendered to AVI format via DivX codec to shrink it to a much smaller size.\r\n\r\nPlays perfectly on all of my PC's here and on my 42&quot; widescreen TV.\r\n\r\n\r\nFormat info -\r\nFormat                      : AVI\r\nFormat/Info                 : Audio Video Interleave\r\nFile size                   : 1.80 GiB\r\nDuration                    : 2h 4mn\r\nOverall bit rate            : 2 069 Kbps\r\nWriting library             : VirtualDub build 35512/release\r\n\r\nVideo\r\nID                          : 0\r\nFormat                      : MPEG-4 Visual\r\nFormat settings, BVOP       : 1\r\nFormat settings, QPel       : No\r\nFormat settings, GMC        : No warppoints\r\nFormat settings, Matrix     : Default (H.263)\r\nMuxing mode                 : Packed bitstream\r\nCodec ID                    : DX50\r\nCodec ID/Hint               : DivX 5\r\nDuration                    : 2h 4mn\r\nBit rate                    : 1 804 Kbps\r\nWidth                       : 1 920 pixels\r\nHeight                      : 960 pixels\r\nDisplay aspect ratio        : 2.000\r\nFrame rate                  : 23.976 fps\r\nColor space                 : YUV\r\nChroma subsampling          : 4:2:0\r\nBit depth                   : 8 bits\r\nScan type                   : Progressive\r\nCompression mode            : Lossy\r\nBits/(Pixel*Frame)          : 0.041\r\nStream size                 : 1.57 GiB (87%)\r\nWriting library             : DivX 6.8.5 (UTC 2009-08-20)\r\n\r\nAudio\r\nID                          : 1\r\nFormat                      : MPEG Audio\r\nFormat version              : Version 1\r\nFormat profile              : Layer 3\r\nMode                        : Joint stereo\r\nCodec ID                    : 55\r\nCodec ID/Hint               : MP3\r\nDuration                    : 2h 4mn\r\nBit rate mode               : Constant\r\nBit rate                    : 256 Kbps\r\nChannel(s)                  : 2 channels\r\nSampling rate               : 48.0 KHz\r\nCompression mode            : Lossy\r\nStream size                 : 228 MiB (12%)\r\nAlignment                   : Split accross interleaves\r\nInterleave, duration        : 42 ms (1.00 video frame)\r\nInterleave, preload duratio : 500 ms\r\n\r\n\r\nEnjoy!! \r\n\r\nPlease SEED for others","torrent":{"xt":"urn:btih:9379b73ffe6112052c308944241b9786956d0a42","amp;dn":"Jurassic+World+2015+1080p+BluRay.avi","amp;tr":["udp%3A%2F%2Ftracker.leechers-paradise.org%3A6969","udp%3A%2F%2Fzer0day.ch%3A1337","udp%3A%2F%2Fopen.demonii.com%3A1337","udp%3A%2F%2Ftracker.coppersurfer.tk%3A6969","udp%3A%2F%2Fexodus.desync.com%3A6969"],"infoHash":"9379b73ffe6112052c308944241b9786956d0a42","infoHashBuffer":{"type":"Buffer","data":[147,121,183,63,254,97,18,5,44,48,137,68,36,27,151,134,149,109,10,66]},"announce":[],"urlList":[]}}